<?xml version="1.0" encoding="utf-8"?>
<!-- Generator: Adobe Illustrator 21.1.0, SVG Export Plug-In . SVG Version: 6.00 Build 0)  -->
<svg version="1.1" id="Réteg_1" xmlns="http://www.w3.org/2000/svg" xmlns:xlink="http://www.w3.org/1999/xlink" x="0px" y="0px"
	 viewBox="0 0 32 32" style="enable-background:new 0 0 32 32;" xml:space="preserve">
<style type="text/css">
	.st0{fill:#FF0099;}
</style>
<g id="Layer_1">
</g>
<g id="aperture">
	<g>
		<path class="st0" d="M21.2,14l5.7-9.7C24,1.7,20.2,0,16,0c-1,0-2,0.1-2.9,0.3L21.2,14z"/>
		<path class="st0" d="M20,20h11.5c0.3-1.3,0.6-2.6,0.6-4c0-3.9-1.4-7.4-3.7-10.1L20,20z"/>
		<path class="st0" d="M16.5,10l-5.4-9.2C6.6,2.3,3,5.6,1.2,10H16.5z"/>
		<path class="st0" d="M15.6,22l5.4,9.1c4.4-1.5,8-4.8,9.8-9.1H15.6z"/>
		<path class="st0" d="M12.1,12H0.6C0.2,13.3,0,14.6,0,16c0,3.9,1.4,7.4,3.8,10.2L12.1,12z"/>
		<path class="st0" d="M10.9,18l-5.7,9.8C8,30.4,11.8,32,16,32c1,0,2.1-0.1,3-0.3L10.9,18z"/>
	</g>
</g>
</svg>
